<?xml version="1.0" encoding="UTF-8"?>
<svg xmlns="http://www.w3.org/2000/svg" viewBox="0 0 454.02 240.21">
  <g id="Layer_1" data-name="Layer 1"/>
  <g id="Layer_2" data-name="Layer 2">
    <g id="Layer_1-2" data-name="Layer 1">
      <g>
        <path d="M2.35,170.97c-.59-1.95-.87-3.97-1.19-5.98-.85-5.34-1.02-10.72-1.05-16.13C-.09,112.66,.05,76.47,.05,40.27c0-6.96,.02-13.91,.08-20.87,.03-3.96,.99-7.68,3.11-11.05C5.64,4.54,9.03,1.99,13.38,.81c5-1.36,9.92-1.06,14.58,1.31,5.24,2.65,8.29,7,9.42,12.72,.44,2.25,.42,4.53,.42,6.81,.02,16.52,.02,33.04,.02,49.55,0,2.08,.23,4.15,.31,6.42,1.87-1.09,3.39-2.52,5.23-3.4,.33,.5-.05,.83-.3,1.16-5.96,7.93-10.2,16.69-12.67,26.29-1.09,4.22-1.78,8.52-2.1,12.88-.15,2.08-.2,4.15-.2,6.22,.01,7.53,1.28,14.86,3.55,22.04,1.32,4.17,3.07,8.15,5.1,12.01,.15,.28,.28,.57,.5,.82,.46-.1,.28-.65,.62-.8,.35,1.12,.27,2.29,.41,3.43,2.32,18.36,14.56,34.77,32.93,41.5,4.64,1.7,9.42,2.68,14.37,2.93,12.59,.64,23.87-2.94,33.98-10.4,.35-.26,.72-.5,1.08-.75,.68,.11,1.33,.04,1.99-.15,3.94-1.13,7.76-2.56,11.45-4.35,.25-.12,.48-.29,.77-.3,.97,1.42,1.68,2.99,2.49,4.49,4.1,7.63,8.18,15.28,12.26,22.92,.66,1.23,.68,.97-.26,1.88-4.16,4.05-8.69,7.65-13.59,10.77-.2,.13-.42,.21-.63,.32-7,2.83-14.39,3.81-21.82,4.66-5.78,.66-11.58,.61-17.36,.38-8.24-.33-16.35-1.76-24.31-3.98-15.94-4.44-30.08-12.24-42.65-22.92-8.62-7.32-15.84-15.88-21.86-25.45-1.79-2.84-3.5-5.72-4.75-8.85Z" fill="#40e05a"/>
        <path d="M37.88,154.84c-.01,.44,0,.88-.04,1.32-.03,.33-.25,.37-.51,.19-.28-.19-.41-.48-.55-.77-2.26-4.32-4.29-8.74-5.67-13.44-1-3.4-1.91-6.81-2.39-10.33-.29-2.16-.54-4.33-.75-6.5-.29-2.96-.23-5.91-.13-8.85,.07-2.13,.29-4.27,.61-6.39,.41-2.67,.82-5.34,1.51-7.95,1.03-3.89,2.22-7.73,3.85-11.43,2.19-4.94,4.78-9.65,7.9-14.06,.41-.58,.87-1.14,1.33-1.69,.18-.22,.35-.43,.34-.74,1.82-1.32,3.81-2.33,5.81-3.32,6.02-2.98,12.37-4.97,18.95-6.23,5.62-1.07,11.29-1.68,17.02-1.77,22.68-.34,43.03,6.27,60.62,20.66,15.52,12.69,25.32,29.01,29.61,48.61,.94,4.3,1.51,8.65,1.74,13.05,.11,2.12,.16,4.23,.2,6.35,.2,12.5,4.06,23.68,12.07,33.36,.23,.28,.43,.57,.64,.86,.05,.12,.13,.22,.25,.29h-.01c.06,.09,.15,.17,.23,.25h0c.08,.08,.15,.16,.23,.24h0c.38,.66-.15,1.05-.45,1.48-1.75,2.44-3.73,4.69-5.74,6.9-5.33,5.87-11.23,11.11-17.65,15.75-.65,.47-1.31,.91-1.98,1.35-.33,.22-.67,.46-1.1,.21-1.81-1.7-3.36-3.64-4.91-5.56-6.97-8.65-12.23-18.23-15.48-28.87-1.66-5.44-2.75-10.99-3.36-16.64-.46-4.22-.4-8.46-.67-12.68-.7-10.84-4.37-20.59-11.27-29.01-7.98-9.73-18.25-15.58-30.66-17.7-4.04-.69-8.11-.93-12.18-.6-13.97,1.13-25.77,6.77-35.08,17.32-5.98,6.78-9.67,14.71-11.38,23.57-.74,3.82-1.03,7.68-.91,11.56,.01,.4,0,.8-.01,1.2Z" fill="#3cdf5b"/>
        <path d="M378.43,63.91c2.29,.05,4.51,.6,6.72,1.11,15.12,3.48,28.47,10.37,39.94,20.83,10.46,9.54,18.15,21,23.16,34.24,2.46,6.49,4.1,13.19,5,20.06,.63,4.84,.9,9.71,.71,14.59-.71,18.9-6.59,35.98-18.3,50.89-12.43,15.83-28.48,26.29-47.91,31.53-5.72,1.54-11.55,2.41-17.48,2.76-4.16,.24-8.31,.13-12.46-.12-.19-.01-.38-.11-.56-.16,.78-.4,1.23-1.06,1.59-1.85,3.07-6.77,5.9-13.63,8.46-20.61,1.4-3.83,2.6-7.72,3.93-11.57,.37-1.06,.69-2.13,.9-3.23,1.81-.46,3.67-.69,5.49-1.14,18.46-4.54,32.93-19.16,37.27-37.69,.72-3.08,1.16-6.19,1.27-9.36,.5-13.62-3.78-25.55-12.67-35.82-5.38-6.21-11.94-10.82-19.57-13.89-.33-.13-.7-.19-.97-.45,.39-1.92-.01-3.83-.16-5.72-.69-8.87-1.75-17.69-3.27-26.46-.37-2.12-.72-4.25-1.2-6.35-.12-.53-.36-1.09,.1-1.59Z" fill="#4ce157"/>
        <path d="M201.54,66.09c.04-.06,.09-.07,.14-.04,.19-.07,.41-.06,.57-.19,.05-.05,.11-.07,.18-.04,.17-.09,.38-.07,.54-.18,.06-.06,.13-.07,.21-.05,.22-.19,.55,0,.76-.22,.04-.05,.1-.07,.16-.03,.18-.08,.39-.06,.56-.18,.07-.06,.14-.07,.22-.04,.21-.19,.53-.02,.74-.21,.06-.05,.12-.07,.2-.04,.23-.17,.54-.01,.76-.21,.06-.05,.12-.06,.19-.03,.23-.17,.54-.02,.77-.2,.07-.05,.14-.06,.22-.03,.29-.23,.7,.03,.99-.23,.05-.05,.11-.06,.18-.03,.24-.15,.55-.01,.78-.19l.4-.05c.25-.14,.56-.01,.8-.19l.41-.05c.32-.19,.72,.03,1.03-.2,.07-.05,.14-.06,.21-.02,.38-.25,.85,.04,1.23-.21l.41-.04c.4-.22,.87,.05,1.27-.2l.44-.03c.47-.25,1.01,.05,1.48-.2l.69-.04c.71-.28,1.48,.08,2.2-.21,.31-.08,.62-.09,.93-.03,2.91-.17,5.82-.17,8.72,0,.31-.05,.61-.05,.91,.03,.72,.28,1.5-.06,2.22,.2l.66,.04c.46,.26,1-.04,1.46,.2v-.02c.25,.31,.43,.66,.59,1.03,4.98,12.05,8.48,24.5,10.07,37.47,.09,.71,.25,1.42,.19,2.14-.04,.47-.03,.98-.58,1.21l-.23-.08c-.14-.12-.35-.08-.48-.21h0c-.15-.17-.37-.13-.55-.22h-.09l-.08-.05c-.14-.13-.35-.09-.5-.2h.02c-.18-.26-.53-.05-.73-.25h.01c-.19-.24-.53-.04-.73-.24h.01c-.19-.24-.53-.04-.73-.24h.01c-.2-.25-.54-.05-.77-.23h-.1l-.09-.04c-.17-.13-.38-.12-.57-.19l-.08,.02-.07-.05c-.22-.22-.55-.05-.78-.22h-.1l-.09-.04c-.22-.2-.54-.04-.77-.21h-.1l-.09-.03c-.23-.2-.55-.05-.79-.2l-.09,.02-.08-.05c-.3-.26-.71,0-1.01-.22l-.1,.02-.09-.04c-.31-.24-.72-.02-1.05-.21l-.4-.04c-.38-.25-.86,.03-1.24-.21l-.43-.03c-.55-.28-1.17,.06-1.72-.21l-.68-.03c-2.16-.18-4.31-.17-6.47,0l-.87,.04c-.49,.22-1.04-.05-1.52,.19l-.44,.04c-.38,.24-.86-.05-1.24,.21l-.39,.04c-.33,.18-.73-.04-1.05,.21l-.08,.04-.09-.02c-.24,.16-.55,.02-.78,.19l-.1,.05h-.11c-.21,.17-.52,.01-.74,.19l-.11,.05h-.12c-.21,.18-.52,.01-.74,.19l-.1,.05h-.11c-.22,.18-.55,0-.76,.21l-.07,.05-.09-.02c-.18,.08-.4,.06-.56,.19l-.08,.05h-.1c-.17,.09-.38,.06-.54,.18l-.09,.05h-.1c-.17,.09-.38,.06-.53,.19-1.61,.69-3.25,1.33-4.84,2.08-6.66,3.17-12.33,7.68-17.35,13.04-1.56,1.66-3.1,3.34-4.34,5.26-.77-.59-1.69-2-2.11-3.25-1.67-5.01-3.7-9.88-6.14-14.56-5.57-10.69-12.95-19.96-21.91-28-3.4-3.05-6.96-5.89-10.68-8.52-.33-.23-.64-.48-.96-.72-3-2.29-4.53-5.28-4.44-9.1,.08-3.56,.01-7.12,.15-10.68,.12-3.16,.14-6.32,.06-9.47-.15-6.28-.12-12.55-.1-18.83,0-3.3,.47-6.53,1.79-9.6,2.66-6.2,7.33-9.84,13.99-10.86,4.21-.65,8.3-.21,12.14,1.75,4.94,2.53,7.81,6.7,9.21,11.98,.57,2.14,.77,4.32,.77,6.53,0,18.12,0,36.24,0,54.35,0,.59,0,1.19,0,1.83,1.27-.12,2.34-.5,3.35-1.12,5.54-3.39,11.34-6.25,17.45-8.45,.41-.15,.8-.36,1.26-.37,.19-.22,.53,0,.72-.25h0c.2-.2,.54,0,.73-.24h0c.2-.2,.53,0,.73-.23Z" fill="#3fe05a"/>
        <path d="M245.44,104.78c.41-.71,.36-1.51,.22-2.22-.27-1.44-.41-2.91-.61-4.36-.35-2.52-.81-5.01-1.31-7.5-.56-2.76-1.24-5.51-1.99-8.23-.86-3.15-1.79-6.28-2.86-9.37-1.06-3.09-2.27-6.12-3.5-9.15-.14-.34-.29-.66-.22-1.03,2.76,.14,5.46,.71,8.14,1.34,16.38,3.89,30.88,11.47,43.49,22.6,13.45,11.88,21.85,26.75,25.56,44.27,.94,4.46,1.5,8.97,1.82,13.52,.21,2.95,.07,5.91,.37,8.86,.14,1.39,.21,2.79,.31,4.18,.14,.31,.12,.63,.06,.94-2.21,10.69-4.73,21.31-8.31,31.64-2.12,6.12-4.53,12.13-7.15,18.06-.24,.55-.39,1.25-1.21,1.29-1.27-1.23-2.32-2.64-3.39-4.03-8.59-11.15-14.25-23.62-16.78-37.49-.62-3.38-1.01-6.79-1.23-10.22-.13-2.04-.1-4.07-.19-6.11-.47-10.18-3.06-19.71-8.64-28.31-5.35-8.25-12.61-14.27-21.6-18.21-.33-.14-.69-.22-.96-.47Z" fill="#43e059"/>
        <path d="M378.43,63.91c.06,1.4,.54,2.71,.77,4.08,.47,2.81,.96,5.61,1.42,8.43,.41,2.5,.68,5.02,1.1,7.51,.29,1.71,.35,3.47,.54,5.2,.21,1.97,.47,3.93,.69,5.89,.11,.98,.16,1.99,.2,2.96,.07,1.71,.39,3.4,.31,5.11-.02,.39,.07,.83-.5,.92h.01c-.18-.26-.53-.04-.72-.25h0c-.16-.16-.38-.14-.58-.21h-.08l-.06-.04c-.16-.15-.39-.13-.58-.2l-.08,.02-.06-.05c-.2-.22-.53-.03-.73-.23h.01c-.21-.24-.54-.06-.77-.23h-.1l-.09-.04c-.21-.2-.52-.02-.73-.21h.01c-.59-.42-1.3-.34-1.96-.47l-.1,.02-.09-.05c-.29-.24-.69,.01-.98-.22l-.11,.02-.11-.04c-.29-.23-.68,0-.98-.21h0c-.45-.44-1.05,.07-1.52-.23l-.39-.04c-.55-.29-1.17,.05-1.72-.22l-.68-.03c-2.8-.18-5.59-.18-8.39,0-3.17,.4-6.33,.85-9.42,1.71-7.72,2.14-14.58,5.82-20.6,11.11-3.26,2.87-5.93,6.26-8.7,9.58-.2,.25-.41,.49-.62,.73-.05,.05-.13,.07-.22,.12-.36-.31-.37-.78-.5-1.18-4.34-14.31-11.62-26.95-21.61-38.04-.45-.5-.92-1-1.34-1.54-1-1.29-1.03-2.53-.08-3.85,.37-.52,.82-.99,1.28-1.43,8.89-8.46,17.76-16.94,26.68-25.37,7.06-6.67,14.19-13.27,21.3-19.89,1.08-1.01,2.2-1.97,3.3-2.95,.18-.22,.51-.28,.65-.55l-.02,.03c.14-.03,.23-.12,.27-.26l-.02,.02c.13-.04,.22-.13,.27-.26l-.02,.02c.13-.04,.21-.13,.27-.26l-.02,.02c.12-.05,.2-.14,.27-.25l-.02,.02c.11-.06,.19-.14,.26-.25h-.01c.1-.05,.18-.14,.26-.22h0c.08-.07,.16-.16,.25-.23h0c.07-.09,.15-.16,.24-.23h.01c.41-.32,.8-.66,1.16-1.03l-.02,.03c.14-.04,.23-.13,.27-.26l-.02,.02c.13-.04,.22-.13,.27-.26l-.02,.02c.13-.05,.21-.14,.27-.26l-.02,.02c.12-.05,.2-.14,.26-.25h-.02c.11-.04,.19-.13,.26-.23h0c.09-.06,.17-.15,.25-.22h0c.08-.08,.16-.16,.24-.23h0c.45-.27,.8-.66,1.16-1.03l-.03,.03c.14-.03,.23-.12,.27-.26l-.02,.03c.14-.04,.22-.13,.27-.26l-.02,.02c.13-.04,.22-.13,.27-.26l-.02,.02c.12-.05,.21-.14,.27-.25l-.02,.02c.11-.05,.2-.14,.26-.25h-.01c.11-.04,.18-.13,.26-.23h0c.09-.07,.17-.15,.25-.23h0c.65-.22,1.01-.76,1.41-1.26l-.03,.03c.14-.03,.23-.12,.27-.26l-.02,.03c.14-.04,.22-.13,.27-.26l-.02,.02c.13-.04,.22-.13,.27-.26l-.02,.02c.12-.05,.21-.14,.27-.25l-.02,.02c.11-.06,.2-.14,.26-.25h-.01c.1-.05,.18-.14,.26-.22h0c.09-.07,.16-.15,.25-.23h0c.65-.23,1.01-.76,1.41-1.26l-.03,.03c.14-.03,.23-.12,.27-.26l-.02,.03c.14-.04,.22-.13,.27-.26l-.02,.02c.13-.04,.22-.13,.27-.26h-.01c.75-.03,.88,.59,1.07,1.09,2.62,6.87,4.96,13.83,7.11,20.86,1.2,3.93,2.27,7.91,3.29,11.89,.11,.42,.31,.83,.15,1.29v-.02c-.15,.03-.23,.12-.28,.26l.02-.02c-.13,.04-.22,.13-.27,.26l.02-.02c-.12,.05-.21,.14-.27,.25l.02-.02c-.11,.06-.19,.14-.26,.24h0c-.53,.18-.85,.6-1.18,1.01l.03-.03c-.14,.03-.23,.12-.27,.26l.02-.02c-.13,.04-.22,.13-.27,.26l.02-.02c-.12,.05-.21,.14-.27,.25l.02-.02c-.11,.06-.19,.14-.26,.24h0c-.09,.06-.17,.15-.25,.22h0c-.08,.08-.16,.16-.24,.23h0c-.07,.09-.15,.17-.23,.24h0c-.07,.09-.15,.17-.23,.24h0c-.07,.09-.15,.17-.23,.24h0c-.07,.09-.15,.17-.23,.25h0c-.08,.09-.16,.16-.23,.26h0c-.1,.07-.18,.15-.24,.26l.02-.02c-.11,.06-.2,.15-.25,.27l.02-.02c-.13,.05-.22,.14-.25,.27l.03-.03c-.32,.26-.59,.57-.76,.95h0c-.1,.06-.2,.14-.24,.26l.02-.02c-.13,.05-.22,.13-.25,.28l.03-.03c-.22,.06-.16,.33-.31,.43h-.01c-.06,.11-.15,.18-.22,.27h0c-.1,.07-.19,.15-.23,.27l.02-.02c-.13,.05-.22,.14-.25,.28l.03-.03c-.22,.06-.16,.33-.31,.43h-.01c-.06,.11-.15,.18-.22,.27h0c-.1,.07-.19,.15-.23,.26l.02-.02c-.12,.06-.22,.14-.25,.28l.03-.03c-.18,.38-1.01,.48-.48,1.15,.07-.03,.13-.02,.18,.02,.8,.38,1.68-.09,2.48,.21l.88,.04c.79,.29,1.64-.08,2.43,.21l.68,.03c.79,.3,1.64-.08,2.42,.22l.7,.03c.54,.27,1.15-.07,1.69,.21h0Z" fill="#46e158"/>
        <path d="M163.81,212.27c1.43-.55,2.58-1.55,3.78-2.45,2.25-1.69,4.47-3.43,6.64-5.22,.8-.65,1.55-1.37,2.32-2.05,1.16-1.03,2.25-2.13,3.39-3.19,1.85-1.74,3.51-3.68,5.21-5.57,1.15-1.27,2.23-2.58,3.34-3.89,.69-.82,1.33-1.68,1.97-2.54,.16-.22,.29-.48,.28-.78,.91,.89,1.82,1.79,2.74,2.67,7.27,6.85,15.82,11.19,25.66,12.84,8.31,1.4,16.49,.66,24.45-2.12,3.32-1.16,6.21-3.1,8.96-5.25,3.28-2.56,6.31-5.41,9.48-8.1,.34-.28,.66-.58,1.01-.84,1.93-1.45,3.71-3.03,5-5.11,.08-.13,.21-.23,.31-.34,.43,.06,.48,.43,.62,.7,6.06,11.35,12.11,22.71,18.16,34.06,.5,.93,.51,.97-.41,1.44-1.37,.7-2.52,1.68-3.67,2.68-11.22,9.88-24.12,16.4-38.78,19.39-7.25,1.48-14.59,1.93-21.95,1.41-18.93-1.34-35.83-7.93-50.52-20.01-2.87-2.36-5.59-4.89-8.01-7.73Z" fill="#43e059"/>
        <path d="M298.23,209.62c.66-.57,.89-1.39,1.23-2.15,1.36-3.05,2.63-6.15,3.84-9.27,1.75-4.53,3.43-9.09,4.84-13.74,1.73-5.71,3.25-11.47,4.57-17.28,.53-2.32,1.01-4.65,1.43-7,.15-.86,.78-1.57,.71-2.49,.31,1.6,.59,3.21,.94,4.8,2.39,10.8,7.41,20.11,15.67,27.56,6.15,5.54,13.33,9.15,21.34,11.15,.31,.08,.61,.18,.92,.27,.22,.17,.53,.02,.75,.19,.07-.03,.14-.02,.2,.03,.29,.24,.7,0,1,.21,.07-.03,.14-.02,.2,.02,.31,.23,.72,.02,1.04,.2l.4,.04c.38,.25,.86-.03,1.24,.21l.44,.03c.54,.28,1.17-.06,1.71,.21l.69,.03c2.64,.17,5.27,.18,7.91,0l.67-.03c.47-.24,1.01,.05,1.49-.2l.67-.06c.36,.23,.23,.51,.15,.84-.62,2.35-1.5,4.62-2.24,6.93-1.93,6.07-4.21,12.02-6.63,17.92-1.46,3.57-3.02,7.11-4.65,10.62-.35,.75-.75,1.04-1.51,.95-.22-.01-.45-.03-.67-.04-.55-.28-1.17,.05-1.72-.21l-.44-.03c-.46-.28-1.01,.04-1.48-.21l-.44-.04c-.38-.25-.85,.04-1.22-.21l-.11,.02-.1-.04c-.38-.27-.85,.03-1.23-.22l-.11,.02-.1-.04c-.31-.24-.71-.01-1.03-.21l-.41-.05c-.24-.17-.55-.05-.8-.19l-.4-.06c-.23-.17-.54-.03-.78-.19l-.09,.02-.08-.04c-.29-.26-.69,.01-.98-.23h-.12l-.11-.04c-.22-.18-.53-.02-.75-.2h-.11l-.1-.04c-.22-.19-.53-.02-.75-.2h-.11l-.1-.04c-.21-.19-.53-.02-.74-.21h-.12l-.1-.04c-.17-.11-.38-.11-.57-.18l-.08,.02-.07-.05c-.21-.23-.54-.04-.77-.22h-.11l-.09-.04c-.17-.13-.38-.11-.56-.19-2.23-.47-4.35-1.3-6.46-2.12-13.07-5.04-24.31-12.76-33.79-23.06-.43-.47-.81-.98-1.21-1.47Z" fill="#47e158"/>
        <path d="M2.35,170.97c.6,.8,1.06,1.67,1.51,2.57,2.21,4.39,4.96,8.44,7.81,12.44,1.43,2.01,2.96,3.95,4.5,5.86,1.25,1.54,2.62,3,3.95,4.48,.72,.8,1.53,1.5,2.17,2.38,.66,.91,1.67,1.47,2.45,2.26,3.5,3.56,7.38,6.67,11.41,9.59,4.13,2.99,8.42,5.73,12.91,8.18,4.81,2.62,9.81,4.79,14.93,6.7,4.49,1.67,9.1,2.89,13.75,3.99,2.39,.56,4.83,.91,7.25,1.34,2.43,.43,4.88,.64,7.32,.88,1.49,.14,3,.32,4.52,.31,3.08-.03,6.16-.07,9.23,.01,1.96,.05,3.91-.13,5.84-.31,6.45-.57,12.84-1.59,19.08-3.34,1.1-.31,2.26-.46,3.29-1.02,.26-.14,.53-.15,.82-.13-1.13,.9-2.42,1.55-3.67,2.25-8.36,4.63-17.26,7.69-26.68,9.31-6.52,1.12-13.09,1.61-19.69,1.32-16.07-.71-31-5.19-44.5-13.99-19.98-13.03-32.57-31.32-38.16-54.47-.05-.19-.04-.39-.06-.59Z" fill="#40e05a"/>
        <path d="M376.08,52.7c-.28-.44-.41-.95-.54-1.45-1.11-4.35-2.32-8.68-3.62-12.97-1.28-4.23-2.75-8.4-4.14-12.6-.8-2.42-1.74-4.79-2.62-7.18-.14-.37-.3-.75-.7-.93,1.63-1.76,3.48-3.28,5.21-4.94,2.2-2.1,4.43-4.15,6.66-6.22,.44-.41,.88-.81,1.34-1.2,2.32-1.96,4.95-2.84,8-2.28,4.01,.73,7.66,2.23,10.67,5.06,3.18,3,4.88,6.77,5.6,11.01,1.13,6.64-1.02,12.12-6.02,16.52-4.02,3.54-8.07,7.04-12.11,10.55-2.29,1.99-4.58,3.99-6.87,5.98-.27,.23-.48,.54-.85,.64Z" fill="#4ce157"/>
        <path d="M134.85,186.75c-.2,.51-.7,.63-1.12,.83-3.03,1.41-6.13,2.66-9.34,3.61-.8,.24-1.61,.44-2.39,.73-.58,.22-1,.09-1.36-.37,.71-.63,1.42-1.28,2.14-1.9,2.82-2.44,5.19-5.3,7.54-8.18,.32-.39,.6-.84,1.15-1.2,1.14,2.19,2.38,4.27,3.38,6.48Z" fill="#3cdf5b"/>
        <path d="M229.91,62.47c-2.91,0-5.82,0-8.72,0,2.91-.33,5.82-.32,8.72,0Z" fill="#43e059"/>
        <path d="M361.38,101.11c.2-.25,.49-.22,.76-.22,2.29,0,4.58,0,6.87,0,.28,0,.56-.02,.76,.22-2.8-.06-5.59-.08-8.39,0Z" fill="#4ce157"/>
        <path d="M369.3,202.66c-.2,.25-.49,.22-.76,.22-2.13,0-4.26,0-6.39,0-.28,0-.56,.02-.76-.22,2.64,0,5.27,0,7.91,0Z" fill="#4ce157"/>
        <path d="M223.62,101.11c.17-.2,.4-.22,.64-.22,1.73,0,3.46,0,5.19,0,.24,0,.47,.02,.64,.22h-6.47Z" fill="#43e059"/>
        <path d="M363.75,18.27c-.17,.75-.4,1.44-1.41,1.26,.38-.51,.82-.98,1.41-1.26Z" fill="#4ce157"/>
        <path d="M360.63,21.15c-.17,.75-.4,1.44-1.41,1.26,.38-.51,.82-.98,1.41-1.26Z" fill="#4ce157"/>
        <path d="M369.62,63.18c-.71,.09-1.43-.07-2.14,.16-.26,.08-.3-.18-.34-.38,.84-.01,1.67-.08,2.48,.21Z" fill="#4ce157"/>
        <path d="M376.45,102.1c.73-.15,1.45-.28,1.96,.48-.68-.05-1.34-.19-1.96-.48Z" fill="#4ce157"/>
        <path d="M373.89,54.62c.14-.63,.35-1.19,1.18-1.01-.32,.42-.67,.81-1.18,1.01Z" fill="#4ce157"/>
        <path d="M372.94,63.43c-.81-.07-1.66,.24-2.43-.21,.82,.01,1.64-.11,2.43,.21Z" fill="#4ce157"/>
        <path d="M376.05,63.67c-.81-.08-1.65,.24-2.42-.22,.81,0,1.64-.11,2.42,.22Z" fill="#4ce157"/>
        <path d="M366.96,62.94c-.2,0-.41,.02-.37-.3,.06-.51,.38-.76,.85-.86-.03,.44-.68,.62-.48,1.15Z" fill="#4ce157"/>
        <path d="M357.51,24.02c-.24,.5-.43,1.07-1.16,1.03,.3-.44,.66-.81,1.16-1.03Z" fill="#4ce157"/>
        <path d="M220.25,62.5c-.7,.42-1.46,.15-2.2,.21,.71-.3,1.46-.22,2.2-.21Z" fill="#43e059"/>
        <path d="M233.04,62.7c-.74-.06-1.51,.24-2.22-.2,.75-.02,1.5-.09,2.22,.2Z" fill="#43e059"/>
        <path d="M372.57,101.39c.38-.04,.75-.03,1.13-.16,.31-.11,.37,.15,.39,.4-.52-.02-1.04,.05-1.52-.24Z" fill="#4ce157"/>
        <path d="M354.63,26.67c-.22,.53-.57,.91-1.16,1.02,.3-.44,.66-.8,1.16-1.02Z" fill="#4ce157"/>
        <path d="M370.45,101.14c.58,.06,1.19-.22,1.72,.22-.58,0-1.18,.07-1.72-.22Z" fill="#4ce157"/>
        <path d="M378.43,63.92c-.56-.06-1.17,.2-1.69-.21,.57,0,1.15-.09,1.69,.21Z" fill="#4ce157"/>
        <path d="M230.78,101.14c.57,.06,1.19-.21,1.72,.21-.58-.01-1.17,.07-1.72-.21Z" fill="#43e059"/>
        <path d="M369.79,58.9c-.1-.6,.27-.83,.76-.95-.14,.41-.42,.71-.76,.95Z" fill="#4ce157"/>
        <path d="M354.85,239.38c.58,.05,1.19-.22,1.72,.21-.58,0-1.18,.09-1.72-.21Z" fill="#4ce157"/>
        <path d="M360.69,202.63c-.57-.06-1.18,.21-1.71-.21,.58,.01,1.17-.08,1.71,.21Z" fill="#4ce157"/>
        <path d="M235.17,62.94c-.49-.03-1.02,.2-1.46-.2,.5,0,1.01-.09,1.46,.2Z" fill="#43e059"/>
        <path d="M217.37,62.75c-.45,.4-.98,.16-1.48,.2,.46-.28,.98-.21,1.48-.2Z" fill="#43e059"/>
        <path d="M221.22,101.34c.46-.41,1.01-.16,1.52-.19-.48,.27-1.01,.19-1.52,.19Z" fill="#43e059"/>
        <path d="M352.94,239.14c.5,.04,1.04-.2,1.48,.21-.5,0-1.02,.07-1.48-.21Z" fill="#4ce157"/>
        <path d="M371.45,202.43c-.45,.39-.99,.16-1.49,.2,.47-.28,.98-.19,1.49-.2Z" fill="#4ce157"/>
        <path d="M232.93,101.38c.42,.03,.88-.17,1.24,.21-.43,0-.86,.06-1.24-.21Z" fill="#43e059"/>
        <path d="M215.46,62.98c-.37,.38-.84,.18-1.27,.2,.39-.26,.83-.21,1.27-.2Z" fill="#43e059"/>
        <path d="M219.54,101.59c.36-.38,.82-.17,1.24-.21-.38,.26-.81,.21-1.24,.21Z" fill="#43e059"/>
        <path d="M213.78,63.22c-.36,.38-.81,.17-1.23,.21,.38-.26,.8-.23,1.23-.21Z" fill="#43e059"/>
        <path d="M351.27,238.9c.41,.04,.87-.16,1.22,.21-.42,.01-.85,.05-1.22-.21Z" fill="#4ce157"/>
        <path d="M349.82,238.66c.42,.04,.88-.17,1.23,.22-.43,.02-.86,.05-1.23-.22Z" fill="#4ce157"/>
        <path d="M358.55,202.39c-.42-.03-.88,.17-1.24-.21,.43,0,.86-.06,1.24,.21Z" fill="#4ce157"/>
        <path d="M351.51,29.55c-.06,.37-.31,.51-.65,.55,.14-.28,.35-.47,.65-.55Z" fill="#4ce157"/>
        <path d="M235.8,101.86c.35,0,.74-.14,1.01,.22-.36,0-.71,.03-1.01-.22Z" fill="#43e059"/>
        <path d="M374.08,101.62c.34,0,.71-.13,.98,.21-.34,0-.69,.06-.98-.21Z" fill="#4ce157"/>
        <path d="M234.57,101.63c.36,0,.75-.15,1.05,.21-.36,.02-.73,.04-1.05-.21Z" fill="#43e059"/>
        <path d="M218.1,101.84c.29-.36,.69-.21,1.05-.21-.31,.25-.68,.22-1.05,.21Z" fill="#43e059"/>
        <path d="M208.74,64.17c-.27,.35-.65,.21-.99,.23,.29-.24,.64-.25,.99-.23Z" fill="#43e059"/>
        <path d="M348.59,238.43c.36,0,.74-.14,1.03,.21-.36,.02-.72,.04-1.03-.21Z" fill="#4ce157"/>
        <path d="M345.04,237.69c.34,.02,.72-.12,.98,.23-.35,.02-.69,.01-.98-.23Z" fill="#4ce157"/>
        <path d="M212.34,63.46c-.29,.35-.67,.2-1.03,.2,.31-.25,.67-.22,1.03-.2Z" fill="#43e059"/>
        <path d="M356.9,202.14c-.36,0-.75,.15-1.04-.2,.36,0,.73-.04,1.04,.2Z" fill="#4ce157"/>
        <path d="M355.66,201.91c-.34-.01-.72,.13-1-.21,.35-.02,.7-.03,1,.21Z" fill="#4ce157"/>
        <path d="M375.27,101.85c.34,.02,.71-.12,.98,.22-.35,0-.69,.02-.98-.22Z" fill="#4ce157"/>
        <path d="M343.1,237.22c.27,0,.55-.06,.75,.2-.28,.03-.54,0-.75-.2Z" fill="#4ce157"/>
        <path d="M344.06,237.46c.27,0,.55-.07,.75,.2-.27,.03-.54,0-.75-.2Z" fill="#4ce157"/>
        <path d="M346.2,237.95c.28-.01,.57-.08,.78,.19-.28,.02-.56,.03-.78-.19Z" fill="#4ce157"/>
        <path d="M347.37,238.19c.29-.02,.58-.09,.8,.19-.29,.02-.57,.03-.8-.19Z" fill="#4ce157"/>
        <path d="M207.53,64.43c-.2,.27-.49,.21-.77,.2,.22-.21,.49-.22,.77-.2Z" fill="#43e059"/>
        <path d="M206.58,64.66c-.2,.28-.49,.22-.76,.21,.21-.22,.48-.23,.76-.21Z" fill="#43e059"/>
        <path d="M205.61,64.91c-.19,.27-.47,.21-.74,.21,.21-.2,.47-.24,.74-.21Z" fill="#43e059"/>
        <path d="M203.94,65.37c-.19,.28-.48,.23-.76,.22,.21-.21,.48-.24,.76-.22Z" fill="#43e059"/>
        <path d="M201.54,66.09c-.18,.28-.46,.23-.73,.23,.2-.2,.45-.25,.73-.23Z" fill="#43e059"/>
        <path d="M200.82,66.32c-.17,.29-.46,.24-.73,.24,.2-.2,.45-.26,.73-.24Z" fill="#43e059"/>
        <path d="M200.1,66.56c-.17,.29-.45,.24-.72,.25,.2-.21,.44-.27,.72-.25Z" fill="#43e059"/>
        <path d="M379.32,102.82c.29-.01,.59-.08,.77,.23-.28,0-.56-.01-.77-.23Z" fill="#4ce157"/>
        <path d="M210.89,63.71c-.22,.28-.52,.2-.8,.19,.23-.22,.52-.21,.8-.19Z" fill="#43e059"/>
        <path d="M217.15,102.06c.21-.27,.5-.21,.78-.19-.22,.22-.5,.21-.78,.19Z" fill="#43e059"/>
        <path d="M216.19,102.29c.19-.26,.47-.2,.74-.2-.21,.19-.47,.23-.74,.2Z" fill="#43e059"/>
        <path d="M215.23,102.53c.19-.26,.47-.2,.74-.2-.21,.19-.46,.24-.74,.2Z" fill="#43e059"/>
        <path d="M236.99,102.11c.28-.02,.58-.08,.79,.2-.29,.02-.56,.02-.79-.2Z" fill="#43e059"/>
        <path d="M237.97,102.34c.28-.01,.57-.07,.77,.21-.28,.02-.55,0-.77-.21Z" fill="#43e059"/>
        <path d="M214.26,102.8c.19-.28,.48-.23,.76-.22-.21,.21-.48,.24-.76,.22Z" fill="#43e059"/>
        <path d="M238.92,102.58c.28-.01,.58-.08,.78,.22-.28,0-.56,0-.78-.22Z" fill="#43e059"/>
        <path d="M378.4,102.57c.27,0,.55-.06,.73,.21-.27,.03-.53-.01-.73-.21Z" fill="#4ce157"/>
        <path d="M209.69,63.95c-.21,.27-.5,.21-.78,.19,.22-.22,.5-.22,.78-.19Z" fill="#43e059"/>
        <path d="M240.61,103.06c.28,0,.59-.08,.77,.24-.28,0-.56-.02-.77-.24Z" fill="#43e059"/>
        <path d="M380.08,103.05c.27,0,.55-.05,.73,.23-.27,.02-.53-.02-.73-.23Z" fill="#4ce157"/>
        <path d="M241.36,103.29c.27,0,.56-.06,.73,.24-.27,0-.53-.03-.73-.24Z" fill="#43e059"/>
        <path d="M242.08,103.53c.27,0,.56-.06,.73,.25-.27,0-.53-.03-.73-.25Z" fill="#43e059"/>
        <path d="M242.8,103.77c.27,0,.57-.06,.73,.26-.27,0-.54-.03-.73-.26Z" fill="#43e059"/>
        <path d="M382.25,103.77c.27,0,.56-.05,.72,.26-.27,0-.53-.05-.72-.26Z" fill="#4ce157"/>
        <path d="M354.46,201.67c-.27,0-.55,.07-.75-.19,.27-.03,.54,0,.75,.19Z" fill="#4ce157"/>
        <path d="M340.45,236.5c.28-.01,.58-.07,.77,.22-.28,.01-.55,0-.77-.22Z" fill="#4ce157"/>
        <path d="M342.15,236.97c.27,0,.55-.06,.74,.21-.28,.03-.53,0-.74-.21Z" fill="#4ce157"/>
        <path d="M202.26,65.86c-.14,.21-.35,.22-.57,.19,.15-.18,.35-.22,.57-.19Z" fill="#43e059"/>
        <path d="M244.73,104.49c.19,0,.37,.03,.48,.21-.2,.02-.36-.04-.48-.21Z" fill="#43e059"/>
        <path d="M212.83,103.26c.13-.2,.33-.21,.54-.19-.14,.18-.33,.21-.54,.19Z" fill="#43e059"/>
        <path d="M212.1,103.5c.13-.2,.32-.21,.53-.2-.14,.18-.32,.22-.53,.2Z" fill="#43e059"/>
        <path d="M380.96,103.32c.23-.03,.44-.02,.58,.2-.22,.02-.43-.02-.58-.2Z" fill="#4ce157"/>
        <path d="M381.68,103.56c.23-.03,.44-.02,.58,.21-.22,.01-.43-.03-.58-.21Z" fill="#4ce157"/>
        <path d="M202.97,65.64c-.13,.2-.33,.2-.54,.18,.14-.18,.33-.21,.54-.18Z" fill="#43e059"/>
        <path d="M243.51,104.02c.2-.02,.38,.01,.5,.2-.2,.02-.38-.02-.5-.2Z" fill="#43e059"/>
        <path d="M244.18,104.27c.22-.02,.43,0,.55,.22-.22,0-.41-.04-.55-.22Z" fill="#43e059"/>
        <path d="M368.09,61.03c.02-.21,.07-.38,.31-.43-.03,.2-.11,.36-.31,.43Z" fill="#4ce157"/>
        <path d="M369.05,59.83c.02-.21,.07-.38,.31-.43-.03,.2-.12,.35-.31,.43Z" fill="#4ce157"/>
        <path d="M339.69,236.27c.21-.02,.42-.02,.56,.19-.22,.03-.41,0-.56-.19Z" fill="#4ce157"/>
        <path d="M204.65,65.16c-.14,.2-.34,.2-.55,.18,.15-.18,.34-.21,.55-.18Z" fill="#43e059"/>
        <path d="M341.36,236.76c.21-.02,.42-.03,.57,.18-.22,.03-.42,0-.57-.18Z" fill="#4ce157"/>
        <path d="M213.54,103.02c.14-.21,.34-.21,.56-.19-.15,.18-.34,.21-.56,.19Z" fill="#43e059"/>
        <path d="M239.84,102.84c.22-.02,.43-.02,.57,.19-.22,.02-.42,0-.57-.19Z" fill="#43e059"/>
        <path d="M358.24,23.32c-.04,.14-.12,.23-.27,.26,.03-.15,.12-.23,.27-.26Z" fill="#4ce157"/>
        <path d="M358,23.56c-.03,.15-.12,.23-.27,.26,.03-.15,.12-.23,.27-.26Z" fill="#4ce157"/>
        <path d="M356.34,25.06l-.24,.23c.03-.13,.11-.21,.24-.23Z" fill="#4ce157"/>
        <path d="M356.1,25.29l-.25,.23c.04-.13,.12-.2,.25-.23Z" fill="#4ce157"/>
        <path d="M355.85,25.51l-.26,.24c.03-.14,.12-.22,.26-.24Z" fill="#4ce157"/>
        <path d="M355.61,25.74c-.04,.13-.13,.22-.26,.25,.03-.14,.12-.22,.26-.25Z" fill="#4ce157"/>
        <path d="M355.36,25.97c-.04,.14-.13,.22-.27,.26,.03-.14,.12-.23,.27-.26Z" fill="#4ce157"/>
        <path d="M355.12,26.2c-.03,.14-.12,.23-.27,.26,.03-.14,.12-.23,.27-.26Z" fill="#4ce157"/>
        <path d="M354.88,26.44c-.03,.15-.12,.23-.27,.26,.03-.15,.12-.23,.27-.26Z" fill="#4ce157"/>
        <path d="M353.46,27.7l-.24,.23c.03-.13,.1-.21,.24-.23Z" fill="#4ce157"/>
        <path d="M353.22,27.93l-.25,.23c.03-.13,.11-.21,.25-.23Z" fill="#4ce157"/>
        <path d="M352.98,28.16l-.26,.23c.03-.14,.12-.21,.26-.23Z" fill="#4ce157"/>
        <path d="M352.73,28.39l-.26,.25c.04-.14,.12-.22,.26-.25Z" fill="#4ce157"/>
        <path d="M352.49,28.62c-.04,.13-.13,.22-.27,.25,.03-.14,.12-.23,.27-.25Z" fill="#4ce157"/>
        <path d="M352.24,28.85c-.04,.14-.13,.23-.27,.26,.03-.14,.13-.23,.27-.26Z" fill="#4ce157"/>
        <path d="M352,29.08c-.03,.14-.12,.23-.26,.26,.03-.14,.12-.23,.26-.26Z" fill="#4ce157"/>
        <path d="M357.75,23.79c-.03,.15-.12,.24-.27,.26,.03-.15,.12-.23,.27-.26Z" fill="#4ce157"/>
        <path d="M375.8,52.93c.03-.15,.12-.23,.27-.26-.03,.15-.13,.23-.27,.26Z" fill="#4ce157"/>
        <path d="M375.56,53.16c.04-.14,.12-.23,.27-.26-.03,.14-.12,.23-.27,.26Z" fill="#4ce157"/>
        <path d="M375.31,53.39c.04-.13,.13-.22,.27-.25-.03,.14-.13,.22-.27,.25Z" fill="#4ce157"/>
        <path d="M370.99,57.47l.24-.26c-.02,.14-.1,.23-.24,.26Z" fill="#4ce157"/>
        <path d="M371.22,57.22l.23-.25c-.03,.13-.1,.22-.23,.25Z" fill="#4ce157"/>
        <path d="M359.22,22.41l-.25,.23c.04-.13,.12-.21,.25-.23Z" fill="#4ce157"/>
        <path d="M371.46,56.96l.23-.24c-.02,.13-.1,.21-.23,.24Z" fill="#4ce157"/>
        <path d="M364.24,17.8c-.03,.14-.12,.23-.27,.26,.03-.15,.12-.23,.27-.26Z" fill="#4ce157"/>
        <path d="M367.41,61.82c.02-.15,.11-.24,.25-.28-.02,.15-.1,.24-.25,.28Z" fill="#4ce157"/>
        <path d="M363.99,18.03c-.03,.15-.12,.24-.27,.26,.03-.15,.12-.23,.27-.26Z" fill="#4ce157"/>
        <path d="M368.6,60.36c.03-.13,.11-.22,.23-.27-.02,.14-.09,.24-.23,.27Z" fill="#4ce157"/>
        <path d="M362.34,19.53l-.25,.23c.03-.13,.12-.21,.25-.23Z" fill="#4ce157"/>
        <path d="M362.1,19.76l-.26,.24c.03-.14,.12-.21,.26-.24Z" fill="#4ce157"/>
        <path d="M361.85,19.98c-.04,.13-.13,.21-.26,.25,.03-.14,.12-.22,.26-.25Z" fill="#4ce157"/>
        <path d="M351.75,29.32c-.03,.15-.12,.23-.27,.26,.03-.15,.13-.23,.27-.26Z" fill="#4ce157"/>
        <path d="M367.64,61.56c.03-.13,.11-.22,.23-.27-.02,.14-.1,.23-.23,.27Z" fill="#4ce157"/>
        <path d="M367.86,61.3l.22-.26c-.02,.13-.09,.22-.22,.26Z" fill="#4ce157"/>
        <path d="M190.28,186.08c-.13-.05-.22-.15-.25-.29,.13,.05,.22,.14,.25,.29Z" fill="#43e059"/>
        <path d="M190.5,186.32l-.23-.26c.13,.04,.21,.13,.23,.26Z" fill="#43e059"/>
        <path d="M190.73,186.57l-.23-.25c.13,.03,.2,.12,.23,.25Z" fill="#43e059"/>
        <path d="M361.61,20.21c-.04,.14-.13,.22-.27,.25,.03-.14,.12-.23,.27-.25Z" fill="#4ce157"/>
        <path d="M370.53,57.98c.02-.15,.11-.24,.25-.27-.03,.14-.11,.24-.25,.27Z" fill="#4ce157"/>
        <path d="M371.7,56.71l.23-.23c-.02,.13-.1,.21-.23,.23Z" fill="#4ce157"/>
        <path d="M371.93,56.47l.23-.23c-.02,.13-.1,.21-.23,.23Z" fill="#4ce157"/>
        <path d="M372.17,56.23l.23-.23c-.02,.13-.1,.21-.23,.23Z" fill="#4ce157"/>
        <path d="M372.42,55.99l.24-.23c-.03,.13-.11,.21-.24,.23Z" fill="#4ce157"/>
        <path d="M372.66,55.76l.25-.23c-.04,.13-.12,.2-.25,.23Z" fill="#4ce157"/>
        <path d="M364.48,17.57c-.04,.14-.13,.23-.27,.26,.03-.14,.12-.23,.27-.26Z" fill="#4ce157"/>
        <path d="M368.82,60.1l.22-.26c-.02,.13-.09,.22-.22,.26Z" fill="#4ce157"/>
        <path d="M361.36,20.45c-.04,.14-.13,.23-.27,.26,.03-.14,.12-.23,.27-.26Z" fill="#4ce157"/>
        <path d="M361.12,20.68c-.03,.14-.12,.23-.27,.26,.03-.15,.12-.23,.27-.26Z" fill="#4ce157"/>
        <path d="M360.87,20.91c-.03,.15-.12,.24-.27,.26,.03-.15,.12-.23,.27-.26Z" fill="#4ce157"/>
        <path d="M358.98,22.64l-.26,.24c.03-.14,.12-.21,.26-.24Z" fill="#4ce157"/>
        <path d="M369.33,59.42c.02-.15,.11-.24,.25-.28-.02,.15-.1,.24-.25,.28Z" fill="#4ce157"/>
        <path d="M369.56,59.17c.03-.14,.11-.23,.24-.27-.02,.14-.1,.24-.24,.27Z" fill="#4ce157"/>
        <path d="M370.76,57.73c.03-.14,.11-.23,.25-.27-.03,.14-.11,.23-.25,.27Z" fill="#4ce157"/>
        <path d="M372.9,55.54l.26-.24c-.04,.14-.13,.22-.26,.24Z" fill="#4ce157"/>
        <path d="M358.73,22.86c-.04,.13-.13,.21-.26,.25,.03-.14,.12-.22,.26-.25Z" fill="#4ce157"/>
        <path d="M358.49,23.09c-.04,.14-.13,.22-.27,.25,.03-.14,.12-.23,.27-.25Z" fill="#4ce157"/>
        <path d="M373.15,55.31c.04-.13,.13-.22,.27-.25-.03,.14-.13,.22-.27,.25Z" fill="#4ce157"/>
        <path d="M373.4,55.08c.04-.14,.12-.23,.27-.26-.03,.14-.12,.23-.27,.26Z" fill="#4ce157"/>
        <path d="M373.64,54.85c.03-.15,.12-.23,.27-.26-.03,.15-.13,.23-.27,.26Z" fill="#4ce157"/>
        <path d="M375.06,53.62l.26-.24c-.04,.14-.13,.22-.26,.24Z" fill="#4ce157"/>
        <path d="M368.37,60.62c.02-.15,.11-.24,.25-.28-.02,.15-.1,.24-.25,.28Z" fill="#4ce157"/>
      </g>
    </g>
  </g>
</svg>