<?xml version="1.0" encoding="UTF-8"?>
<svg xmlns="http://www.w3.org/2000/svg" viewBox="0 0 494.19 574.94">
  <g id="Layer_1" data-name="Layer 1"/>
  <g id="Layer_2" data-name="Layer 2">
    <g id="Layer_1-2" data-name="Layer 1">
      <g>
        <path d="M494.19,406.09c0,53.9,0,107.8,0,161.71,0,1.75-.06,3.51-.17,5.26-.06,.98-.94,1.72-1.94,1.79-.48,.03-.96,.07-1.44,.07-27.67,0-55.34,0-83,.02-14.96,.01-29.72-1.75-44.01-6.15-36.36-11.17-65.3-32.38-85.94-64.55-3.72-5.79-6.98-11.84-9.97-18.04-1.83-3.8-2.98-7.79-3.37-11.94-.58-6.2-1.17-12.42-1.02-18.67,.19-7.88,1.36-15.6,3.75-23.12,1.07-3.37,2.56-6.55,4.34-9.59,2.46-4.21,5.73-7.69,9.74-10.44,1.71-1.17,3.5-2.25,5.29-3.29,41.11-23.75,82.23-47.49,123.34-71.24,1.52-.88,2.97-1.86,4.44-2.82,.52-.34,.51-1.31-.02-1.64-1.47-.95-2.94-1.93-4.45-2.81-10.79-6.26-21.58-12.51-32.38-18.74-31.71-18.29-63.43-36.57-95.14-54.86-2.91-1.68-5.76-3.45-8.24-5.76-2.59-2.42-4.83-5.11-6.62-8.17-1.87-3.18-3.47-6.48-4.7-9.96-3.42-9.67-5.95-19.56-7.39-29.73-1.12-7.93-1.69-15.88-1.68-23.9,.05-26.39,.02-52.78,.02-79.17,0-1.6,.03-3.2,.09-4.79,.04-.98,.85-1.71,1.91-1.76,.8-.04,1.6-.06,2.4-.06,25.59,0,51.18-.09,76.77,.03,22.7,.11,44.38,5.05,65.04,14.45,42.69,19.44,75.14,57.16,87.94,102.2,2.32,8.16,4,16.45,4.98,24.89,.98,8.43,1.41,16.89,1.42,25.36,.03,48.46,.02,96.93,.02,145.39Z" fill="#03c04a"/>
        <path d="M140.61,324.62c-29.75,0-59.5,0-89.25,0-1.76,0-3.52-.02-5.28-.07-12.61-.33-23.3-5.17-32.14-14.02-8.6-8.61-13.2-19.1-13.79-31.29-.12-2.55-.15-5.12-.15-7.67,0-56.3,0-112.61,0-168.91,0-2.4,.09-4.79,.17-7.19,.03-.8,.75-1.55,1.53-1.58,1.43-.07,2.87-.11,4.31-.12,15.03,0,30.07,0,45.1-.02,2.08,0,4.16-.1,6.23-.24,1.14-.08,1.74-.78,1.8-1.88,.12-1.91,.23-3.83,.23-5.74,.02-24.15,0-48.31,.01-72.46,0-3.52,0-7.04,.02-10.56,0-.79,.16-1.58,.26-2.37,.04-.33,.92-.64,1.19-.41,1.09,.92,2.22,1.81,3.24,2.8,4.25,4.12,8.45,8.28,12.69,12.42,6.75,6.59,13.5,13.18,20.27,19.76,1.03,1,2.11,1.95,3.19,2.9,.42,.37,1.35,.36,1.78-.02,.95-.85,1.9-1.71,2.82-2.6,5.05-4.91,10.09-9.82,15.12-14.74,6.06-5.93,12.1-11.88,18.17-17.79,1.02-1,2.18-1.86,3.28-2.77,.24-.2,1.19,.17,1.22,.46,.1,.79,.25,1.58,.28,2.38,.05,1.6,.03,3.2,.03,4.8,0,30.71,0,61.42,0,92.13,0,1.76,.05,3.52,.1,5.28,.03,1.03,.49,1.84,1.45,2.3,1.29,.63,2.59,1.25,3.89,1.87,15.14,7.2,28.86,16.49,41.05,27.99,23.43,22.1,38.89,48.87,46.57,80.13,1.56,6.37,2.55,12.84,3.35,19.36,.86,7.01,.93,14.04,.95,21.07,.05,20.15,.02,40.31,.02,60.46,0,1.44-.04,2.88-.1,4.32-.05,1.37-.88,1.94-2.21,1.97-1.6,.04-3.2,.04-4.8,.04-30.87,0-61.74,0-92.6,0Z" fill="#03c04a"/>
        <path d="M140.87,342.71c31.02,0,62.04,0,93.06,0,1.59,0,3.19,.08,4.78,.15,.55,.02,1.27,.7,1.34,1.2,.07,.47,.17,.94,.18,1.42,.05,1.92,.08,3.84,.08,5.75,0,47.33,0,94.67,0,142,0,2.4-.01,4.8-.1,7.19-.71,19.35-7.78,36.09-20.96,50.18-10.07,10.77-22.33,18-36.62,21.71-6.05,1.57-12.19,2.56-18.47,2.54-5.12-.02-10.23,.07-15.35,.07-45.25,0-90.5,0-135.75,0-1.76,0-3.52,.03-5.28-.04-2.15-.08-4.04-.87-5.68-2.26-1.28-1.09-2.05-2.43-2.07-4.15-.01-1.12-.04-2.24-.04-3.36C0,509.32,0,453.51,0,397.7c0-3.36,.07-6.72,.18-10.07,.59-18.62,13.37-37.01,33.91-43.03,4.62-1.36,9.36-1.91,14.2-1.91,30.86,.04,61.72,.02,92.58,.02Z" fill="#03c04a"/>
      </g>
    </g>
  </g>
</svg>